# Blender v2.69 (sub 0) OBJ File: ''
# www.blender.org
g pipe
v 8.000000 2.000000 2.000000
v 8.000000 -2.000000 2.000000
v 8.000000 2.000000 -2.000000
v 2.000000 2.000000 2.000000
v 2.000000 2.000000 -2.000000
v 8.000000 -2.000000 -2.000000
v 2.000000 -2.000000 2.000000
v 2.000000 -2.000000 -2.000000
vt 0.625000 0.875000
vt 0.625000 0.750000
vt 0.750000 0.875000
vt 0.531250 0.593750
vt 0.718750 0.593750
vt 0.718750 0.718750
vt 0.531250 0.718750
vt 0.718750 0.468750
vt 0.906250 0.593750
vt 0.531250 0.468750
vt 1.000000 0.875000
vt 0.875000 0.750000
vt 1.000000 0.750000
vt 0.875000 0.875000
vt 0.750000 0.750000
vt 0.906250 0.718750
vt 0.906250 0.468750
vn 0.577349 0.577349 0.577349
vn 0.577349 -0.577349 0.577349
vn 0.577349 0.577349 -0.577349
vn -0.577349 0.577349 0.577349
vn -0.577349 0.577349 -0.577349
vn 0.577349 -0.577349 -0.577349
vn -0.577349 -0.577349 0.577349
vn -0.577349 -0.577349 -0.577349
s 1
f 1/1/1 2/2/2 3/3/3
f 4/4/4 1/5/1 3/6/3
f 3/6/3 5/7/5 4/4/4
f 3/5/3 6/8/6 5/9/5
f 2/8/2 1/5/1 4/4/4
f 4/4/4 7/10/7 2/8/2
f 4/11/4 8/12/8 7/13/7
f 5/14/5 8/12/8 4/11/4
f 2/2/2 6/15/6 3/3/3
f 7/6/7 6/9/6 2/16/2
f 7/6/7 8/5/8 6/9/6
f 6/8/6 8/17/8 5/9/5
g base
v 2.000000 2.000000 2.000000
v 2.000000 -2.000000 2.000000
v 2.000000 2.000000 -2.000000
v -2.000000 2.000000 2.000000
v -2.000000 2.000000 -2.000000
v 2.000000 -2.000000 -2.000000
v -2.000000 -2.000000 2.000000
v -2.000000 -2.000000 -2.000000
vt 0.125000 0.875000
vt 0.125000 0.750000
vt 0.250000 0.875000
vt 0.250000 1.000000
vt 0.125000 1.000000
vt 0.250000 0.750000
vt 0.375000 0.875000
vt 0.000000 0.875000
vt 0.000000 0.750000
vt 0.500000 0.875000
vt 0.375000 0.750000
vt 0.500000 0.750000
vt 0.375000 1.000000
vn 0.577349 0.577349 0.577349
vn 0.577349 -0.577349 0.577349
vn 0.577349 0.577349 -0.577349
vn -0.577349 0.577349 0.577349
vn -0.577349 0.577349 -0.577349
vn 0.577349 -0.577349 -0.577349
vn -0.577349 -0.577349 0.577349
vn -0.577349 -0.577349 -0.577349
s 1
f 9/18/9 10/19/10 11/20/11
f 12/18/12 9/20/9 11/21/11
f 11/21/11 13/22/13 12/18/12
f 11/20/11 14/23/14 13/24/13
f 10/19/10 9/18/9 12/25/12
f 12/25/12 15/26/15 10/19/10
f 12/27/12 16/28/16 15/29/15
f 13/24/13 16/28/16 12/27/12
f 10/19/10 14/23/14 11/20/11
f 15/21/15 14/24/14 10/30/10
f 15/21/15 16/20/16 14/24/14
f 14/23/14 16/28/16 13/24/13
g connector
v 6.000000 2.000000 2.000000
v 6.000000 -2.000000 -2.000000
v 6.000000 -2.000000 2.000000
v 8.000000 3.999999 4.000000
v 8.000000 -4.000000 3.999999
v 8.000000 4.000000 -3.999999
v 8.000000 -3.999999 -4.000000
v 6.000000 2.000000 -2.000000
v 2.000000 2.000000 2.000000
v 2.000000 2.000000 -2.000000
v 2.000000 -2.000000 2.000000
v 2.000000 -2.000000 -2.000000
vt 0.500000 0.375000
vt 0.250000 0.125000
vt 0.500000 0.125000
vt 0.500000 0.062500
vt 0.250000 0.062500
vt 0.750000 0.125000
vt 0.750000 0.062500
vt 0.000000 0.125000
vt 0.000000 0.062500
vt 0.250000 0.375000
vt 0.000000 0.375000
vt 1.000000 0.062500
vt 1.000000 0.125000
vt 0.750000 0.875000
vt 0.750000 0.750000
vt 0.875000 0.875000
vt 0.875000 0.750000
vt 0.750000 1.000000
vt 0.875000 1.000000
vt 1.000000 0.875000
vt 1.000000 0.750000
vt 0.625000 0.750000
vt 0.625000 0.875000
vt 0.500000 0.875000
vt 0.500000 0.750000
vt 0.625000 1.000000
vn -1.000000 0.000000 0.000000
vn 0.224189 0.689077 0.689077
vn -0.816496 0.408248 0.408248
vn -0.816497 -0.408248 0.408248
vn 0.224189 -0.689077 0.689077
vn -0.816496 -0.408248 -0.408248
vn 0.224189 0.689077 -0.689077
vn 0.224189 -0.689077 -0.689077
vn -0.816497 0.408248 -0.408248
vn 0.000000 0.707107 -0.707107
vn 0.000000 -0.707107 -0.707107
vn -0.577349 0.577349 -0.577349
vn -0.577349 -0.577349 -0.577349
vn -0.577349 -0.577349 0.577349
vn 0.000000 -0.707107 0.707107
vn -0.577349 0.577349 0.577349
vn 0.000000 0.707107 0.707107
vn 1.000000 0.000000 0.000000
s 1
f 17/31/17 18/32/17 19/33/17
f 20/34/18 17/33/19 19/32/20
f 19/32/20 21/35/21 20/34/18
f 19/36/20 18/33/22 21/37/21
f 22/35/23 17/38/19 20/39/18
f 21/38/21 22/40/23 20/41/18
f 21/38/21 23/32/24 22/40/23
f 21/37/21 18/33/22 23/34/24
f 24/32/25 17/38/19 22/35/23
f 23/36/24 24/42/25 22/43/23
f 23/36/24 18/37/22 24/42/25
f 18/32/17 17/31/17 24/40/17
f 24/44/26 18/45/27 26/46/28
f 18/45/27 28/47/29 26/46/28
f 27/48/30 28/44/29 18/46/27
f 27/48/30 18/46/27 19/49/31
f 25/50/32 28/47/29 27/51/30
f 26/46/28 28/47/29 25/50/32
f 19/52/31 17/53/33 25/54/32
f 17/53/34 19/52/34 24/44/34
f 25/53/32 17/44/33 24/48/26
f 25/54/32 27/55/30 19/52/31
f 19/52/34 18/45/34 24/44/34
f 24/48/26 26/56/28 25/53/32
